<?xml version="1.0" encoding="UTF-8"?>
<svg width="7px" height="12px" viewBox="0 0 7 12" version="1.1" xmlns="http://www.w3.org/2000/svg" xmlns:xlink="http://www.w3.org/1999/xlink">
    <!-- Generator: Sketch 59.1 (86144) - https://sketch.com -->
    <title>facebook copy</title>
    <desc>Created with Sketch.</desc>
    <g id="Nuevos-mails" stroke="none" stroke-width="1" fill="none" fill-rule="evenodd">
        <g id="10-Modificación-de-vistazo-(edición-de-vistazo)" transform="translate(-190.000000, -278.000000)" fill="#000000">
            <g id="Group-7" transform="translate(102.000000, 276.000000)">
                <path d="M93.5824963,3.99984372 L95,3.99984372 L95,2 L93.2396716,2 L92.8757097,2 C92.8757097,2 91.5402219,1.97038225 90.6887064,2.96359303 C90.6887064,2.96359303 90.1088305,3.45435784 90.1000087,4.89129527 L90.099572,4.89129527 L90.099572,6.39110704 L88,6.39110704 L88,8.51448804 L90.099572,8.51448804 L90.099572,14 L92.5211809,14 L92.5211809,8.51448804 L94.6043323,8.51448804 L94.8946633,6.39110704 L92.5211809,6.39110704 L92.5211809,4.89129527 L92.5205695,4.89129527 C92.5264215,4.72376102 92.6094855,3.98479151 93.5824963,3.99984372" id="facebook-copy"></path>
            </g>
        </g>
    </g>
</svg>