<?xml version="1.0" encoding="UTF-8"?>
<svg width="6px" height="10px" viewBox="0 0 6 10" version="1.1" xmlns="http://www.w3.org/2000/svg" xmlns:xlink="http://www.w3.org/1999/xlink">
    <!-- Generator: Sketch 59.1 (86144) - https://sketch.com -->
    <title>facebook</title>
    <desc>Created with Sketch.</desc>
    <g id="Nuevos-mails" stroke="none" stroke-width="1" fill="none" fill-rule="evenodd">
        <g id="30-Vulnerabilidad-de-la-cuenta" transform="translate(-236.000000, -515.000000)" fill="#000000">
            <g id="Group-9" transform="translate(0.000000, 468.000000)">
                <g id="Group-5" transform="translate(41.000000, 42.000000)">
                    <path d="M199.784997,6.66653643 L201,6.66653643 L201,5 L199.491147,5 L199.17918,5 C199.17918,5 198.034476,4.97531855 197.304606,5.80299419 C197.304606,5.80299419 196.807569,6.21196487 196.800007,7.40941273 L196.799633,7.40941273 L196.799633,8.65925587 L195,8.65925587 L195,10.42874 L196.799633,10.42874 L196.799633,15 L198.875298,15 L198.875298,10.42874 L200.660856,10.42874 L200.909711,8.65925587 L198.875298,8.65925587 L198.875298,7.40941273 L198.874774,7.40941273 C198.87979,7.26980085 198.950988,6.65399292 199.784997,6.66653643" id="facebook"></path>
                </g>
            </g>
        </g>
    </g>
</svg>