<?xml version="1.0" encoding="UTF-8"?>
<svg width="68px" height="68px" viewBox="0 0 68 68" version="1.1" xmlns="http://www.w3.org/2000/svg" xmlns:xlink="http://www.w3.org/1999/xlink">
    <!-- Generator: Sketch 57.1 (83088) - https://sketch.com -->
    <title>Group 2</title>
    <desc>Created with Sketch.</desc>
    <g id="detalle_campana" stroke="none" stroke-width="1" fill="none" fill-rule="evenodd">
        <g id="Artboard" transform="translate(-108.000000, -184.000000)">
            <g id="Group-2" transform="translate(108.000000, 184.000000)">
                <circle id="Oval" fill="#C2C2E2" cx="34" cy="34" r="34"></circle>
                <g id="Group" transform="translate(10.000000, 12.000000)" fill="#FFFFFF" fill-rule="nonzero">
                    <path d="M8.24176663,28.1386916 C7.5248517,28.1386916 6.80254644,28.1386916 6.08563151,28.1386916 C5.3579359,28.1386916 4.61406928,28.1915324 3.89176401,28.1281234 C4.08042584,28.1545438 4.274478,28.1809643 4.46313982,28.2021006 C4.33916205,28.1862483 4.2313553,28.1545438 4.11276786,28.1122712 C4.28525867,28.1809643 4.45774948,28.2549414 4.63024029,28.3236345 C4.52243354,28.2760778 4.42001712,28.2179528 4.32299104,28.1492598 C4.46853016,28.2602255 4.61406928,28.3711912 4.7596084,28.482157 C4.66797266,28.4081798 4.58711759,28.3289186 4.51165286,28.2390892 C4.62484996,28.3817594 4.73804705,28.5244297 4.85124414,28.6670999 C4.78116975,28.5719864 4.72187604,28.4768729 4.673363,28.3659072 C4.74343739,28.5349978 4.81890212,28.7040885 4.88897651,28.8731792 C4.84585381,28.7622134 4.81890212,28.6512477 4.79734077,28.5297137 C4.82429246,28.7146567 4.85124414,28.9048837 4.8728055,29.0898266 C4.84046347,28.6935203 4.86202482,28.2813618 4.86202482,27.8850556 C4.86202482,26.9973296 4.86202482,26.1148877 4.86202482,25.2271617 C4.86202482,23.2350623 4.86202482,21.248247 4.86202482,19.2561476 C4.86202482,18.7647278 4.82968279,18.2627399 4.8728055,17.7766043 C4.84585381,17.9615472 4.81890212,18.1517742 4.79734077,18.3367171 C4.81351178,18.2151832 4.84585381,18.1095015 4.88897651,17.9932517 C4.81890212,18.1623423 4.74343739,18.331433 4.673363,18.5005237 C4.72187604,18.394842 4.78116975,18.2944444 4.85124414,18.1993309 C4.73804705,18.3420012 4.62484996,18.4846714 4.51165286,18.6273417 C4.58711759,18.5375123 4.66797266,18.458251 4.7596084,18.3842738 C4.61406928,18.4952396 4.46853016,18.6062053 4.32299104,18.7171711 C4.42001712,18.648478 4.5170432,18.5903531 4.63024029,18.5427963 C4.45774948,18.6114894 4.28525867,18.6854666 4.11276786,18.7541597 C4.22596496,18.711887 4.33916205,18.6854666 4.46313982,18.6643303 C4.274478,18.6907507 4.08042584,18.7171711 3.89176401,18.7383074 C4.63563063,18.6748984 5.4010586,18.7277392 6.13953488,18.7277392 C6.8834015,18.7277392 7.64882947,18.6748984 8.38730575,18.7383074 C8.19864393,18.711887 8.00459177,18.6854666 7.81592995,18.6643303 C7.93990772,18.6801825 8.04771447,18.711887 8.1663019,18.7541597 C7.99381109,18.6854666 7.82132028,18.6114894 7.64882947,18.5427963 C7.75663623,18.5903531 7.85905265,18.648478 7.95607873,18.7171711 C7.81053961,18.6062053 7.66500049,18.4952396 7.51946137,18.3842738 C7.61109711,18.458251 7.69195218,18.5375123 7.76741691,18.6273417 C7.65421981,18.4846714 7.54102272,18.3420012 7.42782562,18.1993309 C7.49790001,18.2944444 7.55719373,18.3895579 7.60570677,18.5005237 C7.53563238,18.331433 7.46016765,18.1623423 7.39009326,17.9932517 C7.43321596,18.1042174 7.46016765,18.2151832 7.481729,18.3367171 C7.45477731,18.1517742 7.42782562,17.9615472 7.40626427,17.7766043 C7.4386063,18.1729105 7.41704495,18.585069 7.41704495,18.9813752 C7.41704495,19.8691012 7.41704495,20.7515431 7.41704495,21.6392691 C7.41704495,23.6313685 7.41704495,25.6181839 7.41704495,27.6102833 C7.41704495,28.101703 7.44938697,28.6036909 7.40626427,29.0898266 C7.43321596,28.9048837 7.46016765,28.7146567 7.481729,28.5297137 C7.46555799,28.6512477 7.43321596,28.7569293 7.39009326,28.8731792 C7.46016765,28.7040885 7.53563238,28.5349978 7.60570677,28.3659072 C7.55719373,28.4715888 7.49790001,28.5719864 7.42782562,28.6670999 C7.54102272,28.5244297 7.65421981,28.3817594 7.76741691,28.2390892 C7.69195218,28.3289186 7.61109711,28.4081798 7.51946137,28.482157 C7.66500049,28.3711912 7.81053961,28.2602255 7.95607873,28.1492598 C7.85905265,28.2179528 7.76202657,28.2760778 7.64882947,28.3236345 C7.82132028,28.2549414 7.99381109,28.1809643 8.1663019,28.1122712 C8.05310481,28.1545438 7.93990772,28.1809643 7.81592995,28.2021006 C8.00459177,28.1756802 8.19864393,28.1492598 8.38730575,28.1281234 C8.33879271,28.1334075 8.29027967,28.1386916 8.24176663,28.1386916 C7.6811715,28.1545438 7.12057637,28.3659072 6.71630103,28.7569293 C6.34436772,29.1215311 6.05867982,29.7239166 6.08563151,30.2523249 C6.13414455,31.3725506 7.03433096,32.3976627 8.24176663,32.3659582 C10.1930689,32.3131174 11.7077539,30.8071536 11.7185345,28.8890314 C11.7185345,28.5244297 11.7185345,28.1598279 11.7185345,27.7952262 C11.7185345,26.262842 11.7185345,24.7357419 11.7185345,23.2033578 C11.7185345,21.7449508 11.7185345,20.2865438 11.7185345,18.8281368 C11.7185345,18.5322282 11.7239249,18.2363195 11.7185345,17.9404108 C11.6754118,16.0328568 10.1391655,14.5321771 8.18247292,14.5163249 C6.8402788,14.5057567 5.49808468,14.5163249 4.1612809,14.5163249 C3.476708,14.5163249 2.78674476,14.6642792 2.20458828,15.034165 C1.18581443,15.6841073 0.58748693,16.7409239 0.560535241,17.9298427 C0.555144903,18.1887628 0.560535241,18.4529669 0.560535241,18.711887 C0.560535241,21.69211 0.560535241,24.6723329 0.560535241,27.6525559 C0.560535241,28.0488622 0.560535241,28.4504525 0.560535241,28.8467587 C0.565925578,30.4108474 1.61704145,31.9485156 3.24492347,32.2708447 C3.94566739,32.4082309 4.66797266,32.3659582 5.37410691,32.3659582 C6.17726725,32.3659582 6.98042758,32.3659582 7.78358792,32.3659582 C7.93451738,32.3659582 8.09083717,32.3659582 8.24176663,32.3659582 C9.36834724,32.3659582 10.4518051,31.3936869 10.3979018,30.2523249 C10.3439984,29.1056788 9.4492023,28.1386916 8.24176663,28.1386916 Z" id="Path"></path>
                    <path d="M43.945815,28.1409537 C43.2308379,28.1409537 42.5212773,28.1409537 41.8063002,28.1409537 C41.0859066,28.1409537 40.343847,28.1938033 39.6234534,28.1303838 C39.8130307,28.1568086 40.0080244,28.1832334 40.1976017,28.2043732 C40.0730224,28.1885183 39.9646925,28.1568086 39.8455296,28.1145289 C40.0188574,28.1832334 40.1921852,28.2572228 40.365513,28.3259273 C40.2571831,28.2783627 40.1542698,28.2202281 40.0567729,28.1515236 C40.2030182,28.2625078 40.3492635,28.3734919 40.4955088,28.4844761 C40.4034284,28.4104867 40.322181,28.3312123 40.2463501,28.2413679 C40.3600965,28.3840619 40.4738429,28.5267558 40.5875892,28.6694497 C40.5171748,28.5743204 40.4575934,28.4791912 40.4088449,28.368207 C40.4792593,28.5373257 40.5550902,28.7064445 40.6255047,28.8755632 C40.5821727,28.764579 40.5550902,28.6535949 40.5334243,28.5320408 C40.5605067,28.7170144 40.5875892,28.907273 40.6092552,29.0922466 C40.5767562,28.6958745 40.5984222,28.2836476 40.5984222,27.8872756 C40.5984222,26.9994022 40.5984222,26.1168138 40.5984222,25.2289405 C40.5984222,23.2365104 40.5984222,21.2493653 40.5984222,19.2569352 C40.5984222,18.7654339 40.5659232,18.2633626 40.6092552,17.7771462 C40.5821727,17.9621199 40.5550902,18.1523784 40.5334243,18.3373521 C40.5496738,18.215798 40.5821727,18.1100988 40.6255047,17.9938296 C40.5550902,18.1629484 40.4792593,18.3320671 40.4088449,18.5011858 C40.4575934,18.3954866 40.5171748,18.2950724 40.5875892,18.1999431 C40.4738429,18.342637 40.3600965,18.4853309 40.2463501,18.6280249 C40.322181,18.5381806 40.4034284,18.4589061 40.4955088,18.3849167 C40.3492635,18.4959009 40.2030182,18.606885 40.0567729,18.7178692 C40.1542698,18.6491647 40.2517666,18.5910302 40.365513,18.5434655 C40.1921852,18.61217 40.0188574,18.6861594 39.8455296,18.7548639 C39.959276,18.7125842 40.0730224,18.6861594 40.1976017,18.6650196 C40.0080244,18.6914444 39.8130307,18.7178692 39.6234534,18.739009 C40.3600965,18.6755895 41.1184055,18.7284391 41.8604651,18.7284391 C42.5971082,18.7284391 43.3608337,18.6755895 44.0974768,18.739009 C43.9078996,18.7125842 43.7129058,18.6861594 43.5233285,18.6650196 C43.6479079,18.6808745 43.7562377,18.7125842 43.8754006,18.7548639 C43.7020728,18.6861594 43.528745,18.61217 43.3554172,18.5434655 C43.4637471,18.5910302 43.5666605,18.6491647 43.6641574,18.7178692 C43.517912,18.606885 43.3716667,18.4959009 43.2254214,18.3849167 C43.3175018,18.4589061 43.3987492,18.5381806 43.4745801,18.6280249 C43.3608337,18.4853309 43.2470874,18.342637 43.133341,18.1999431 C43.2037554,18.2950724 43.2633369,18.3902017 43.3120853,18.5011858 C43.2416709,18.3320671 43.16584,18.1629484 43.0954256,17.9938296 C43.1387575,18.1048138 43.16584,18.215798 43.187506,18.3373521 C43.1604235,18.1523784 43.133341,17.9621199 43.1116751,17.7771462 C43.144174,18.1735183 43.122508,18.5857452 43.122508,18.9821172 C43.122508,19.8699906 43.122508,20.752579 43.122508,21.6404523 C43.122508,23.6328824 43.122508,25.6200276 43.122508,27.6124576 C43.122508,28.103959 43.155007,28.6060302 43.1116751,29.0922466 C43.1387575,28.907273 43.16584,28.7170144 43.187506,28.5320408 C43.1712565,28.6535949 43.1387575,28.7592941 43.0954256,28.8755632 C43.16584,28.7064445 43.2416709,28.5373257 43.3120853,28.368207 C43.2633369,28.4739062 43.2037554,28.5743204 43.133341,28.6694497 C43.2470874,28.5267558 43.3608337,28.3840619 43.4745801,28.2413679 C43.3987492,28.3312123 43.3175018,28.4104867 43.2254214,28.4844761 C43.3716667,28.3734919 43.517912,28.2625078 43.6641574,28.1515236 C43.5666605,28.2202281 43.4691636,28.2783627 43.3554172,28.3259273 C43.528745,28.2572228 43.7020728,28.1832334 43.8754006,28.1145289 C43.7616542,28.1568086 43.6479079,28.1832334 43.5233285,28.2043732 C43.7129058,28.1779484 43.9078996,28.1515236 44.0974768,28.1303838 C44.0433119,28.1356687 43.9945634,28.1409537 43.945815,28.1409537 C43.3824997,28.1568086 42.8191844,28.368207 42.4129474,28.7592941 C42.0392094,29.1239563 41.7521353,29.7264418 41.7792177,30.2549379 C41.8279662,31.3753495 42.7325205,32.4006318 43.945815,32.368922 C45.9065856,32.3160724 47.4286201,30.8098587 47.4394531,28.8914181 C47.4394531,28.5267558 47.4394531,28.1620935 47.4394531,27.7974313 C47.4394531,26.2859326 47.4394531,24.7744339 47.4394531,23.2576502 C47.4394531,21.7831463 47.4394531,20.3086423 47.4394531,18.8288534 C47.4394531,18.5328956 47.4448696,18.2369378 47.4394531,17.94098 C47.3961212,16.0331093 45.8578371,14.5321805 43.9024831,14.5163256 C42.5700257,14.5057557 41.2321519,14.5163256 39.8996946,14.5163256 C39.2117999,14.5163256 38.5184888,14.6643045 37.9335075,15.0342518 C36.9097903,15.6843019 36.3085596,16.741294 36.2814771,17.9304101 C36.2760606,18.1893732 36.2814771,18.4536212 36.2814771,18.7125842 C36.2814771,21.682732 36.2814771,24.6528798 36.2814771,27.6230276 C36.2814771,28.0299695 36.2814771,28.4369115 36.2814771,28.8385685 C36.2814771,30.3870619 37.2997778,31.9038455 38.9084763,32.2579379 C39.6126204,32.4164867 40.35468,32.3636371 41.0750736,32.3636371 C41.8821311,32.3636371 42.6837721,32.3636371 43.4908296,32.3636371 C43.6424914,32.3636371 43.7995697,32.3636371 43.9512315,32.3636371 C45.0832786,32.3636371 46.1719937,31.3912044 46.1178288,30.2496529 C46.0582474,29.1081014 45.1591095,28.1409537 43.945815,28.1409537 Z" id="Path"></path>
                    <path d="M24.6299136,39.1505792 C24.1879452,39.1505792 23.7459768,39.1505792 23.3040084,39.1505792 C22.8297009,39.1505792 22.3446136,39.1832947 21.8703061,39.1233163 C22.0589511,39.1505792 22.252986,39.1778422 22.4416311,39.1996525 C22.1990874,39.1614844 21.9673235,39.101506 21.7463393,39.008812 C21.9188148,39.0796956 22.0912903,39.1560318 22.2637657,39.2269154 C22.0427815,39.1287689 21.8433568,39.0142646 21.6493219,38.8670448 C21.7948481,38.9815491 21.9403742,39.0960534 22.0859004,39.2105577 C21.8810858,39.0469801 21.6978306,38.8670448 21.5361348,38.6543939 C21.6493219,38.8016138 21.7625089,38.9488336 21.8756959,39.0960534 C21.7355596,38.8997603 21.6169827,38.6980146 21.5199653,38.4744586 C21.5900334,38.6489414 21.6654914,38.8234241 21.7355596,38.9979068 C21.643932,38.7688982 21.5846436,38.5344371 21.5469146,38.2945233 C21.5738639,38.4853638 21.6008131,38.6816569 21.6223726,38.8724974 C21.5900334,38.6216784 21.5900334,38.3708595 21.6223726,38.1200406 C21.5954233,38.3108811 21.568474,38.5071741 21.5469146,38.6980146 C21.5846436,38.4526483 21.643932,38.2181871 21.7355596,37.9946311 C21.6654914,38.1691138 21.5900334,38.3435966 21.5199653,38.5180793 C21.6169827,38.2945233 21.7301698,38.0927776 21.8756959,37.8964846 C21.7625089,38.0437044 21.6493219,38.1909242 21.5361348,38.338144 C21.6978306,38.1309457 21.8756959,37.9455578 22.0859004,37.7819803 C21.9403742,37.8964846 21.7948481,38.0109889 21.6493219,38.1254932 C21.8433568,37.9837259 22.0427815,37.863769 22.2637657,37.7656225 C22.0912903,37.8365061 21.9188148,37.9128423 21.7463393,37.9837259 C21.9727134,37.891032 22.2044773,37.8310535 22.4416311,37.7928854 C22.252986,37.8201484 22.0589511,37.8474113 21.8703061,37.8692216 C22.3823426,37.8037906 22.9159386,37.8419587 23.433365,37.8419587 C23.9507914,37.8419587 24.4843874,37.8037906 24.996424,37.8692216 C24.8077789,37.8419587 24.613744,37.8146958 24.425099,37.7928854 C24.6676426,37.8310535 24.8994065,37.891032 25.1203907,37.9837259 C24.9479153,37.9128423 24.7754398,37.8365061 24.6029643,37.7656225 C24.8239485,37.863769 25.0233733,37.9782733 25.2174082,38.1254932 C25.071882,38.0109889 24.9263558,37.8964846 24.7808297,37.7819803 C24.9856443,37.9455578 25.1688995,38.1254932 25.3305952,38.338144 C25.2174082,38.1909242 25.1042212,38.0437044 24.9910341,37.8964846 C25.1311705,38.0927776 25.2497473,38.2945233 25.3467648,38.5180793 C25.2766966,38.3435966 25.2012386,38.1691138 25.1311705,37.9946311 C25.2227981,38.2236397 25.2820865,38.4581009 25.3198155,38.6980146 C25.2928662,38.5071741 25.2659169,38.3108811 25.2443575,38.1200406 C25.2766966,38.3708595 25.2766966,38.6216784 25.2443575,38.8724974 C25.2713068,38.6816569 25.2982561,38.4853638 25.3198155,38.2945233 C25.2820865,38.5398897 25.2227981,38.7743508 25.1311705,38.9979068 C25.2012386,38.8234241 25.2766966,38.6489414 25.3467648,38.4744586 C25.2497473,38.6980146 25.1365603,38.8997603 24.9910341,39.0960534 C25.1042212,38.9488336 25.2174082,38.8016138 25.3305952,38.6543939 C25.1688995,38.8615922 24.9910341,39.0469801 24.7808297,39.2105577 C24.9263558,39.0960534 25.071882,38.9815491 25.2174082,38.8670448 C25.0233733,39.008812 24.8239485,39.1287689 24.6029643,39.2269154 C24.7754398,39.1560318 24.9479153,39.0796956 25.1203907,39.008812 C24.8940167,39.101506 24.6622528,39.1614844 24.425099,39.1996525 C24.613744,39.1723896 24.8077789,39.1451266 24.996424,39.1233163 C24.8778471,39.1396741 24.7538804,39.1505792 24.6299136,39.1505792 C24.0747582,39.1560318 23.5034332,39.390493 23.1045837,39.7885317 C22.7326834,40.1647601 22.4470209,40.7863549 22.4739702,41.3316134 C22.5278688,42.4984667 23.4225853,43.5290054 24.6299136,43.5126476 C25.4707315,43.5017425 26.2360914,43.2945442 26.9798919,42.9074107 C27.6967431,42.5366348 28.2518985,41.9532082 28.7208162,41.3043505 C29.5562443,40.1484024 29.7772285,38.5507948 29.4107181,37.1821959 C29.0118686,35.69364 27.9231172,34.4886186 26.5325337,33.8942868 C25.7078853,33.5398687 24.8616775,33.4907955 23.9831306,33.4907955 C23.4171955,33.4907955 22.8512603,33.4853429 22.2853252,33.4907955 C20.9540301,33.496248 19.6227351,34.0306014 18.6956794,35.0120668 C18.140524,35.6009461 17.757844,36.2770667 17.5045207,37.0458812 C17.2458075,37.8419587 17.2673669,38.6489414 17.3913337,39.4613766 C17.606928,40.8572385 18.5717127,42.1440487 19.7682613,42.8419796 C21.2504723,43.7034881 22.9913966,43.5181002 24.6299136,43.5181002 C25.756394,43.5181002 26.8397556,42.5148245 26.785857,41.337066 C26.7319584,40.1484024 25.8372419,39.1505792 24.6299136,39.1505792 Z" id="Path"></path>
                    <path d="M28.045024,40.1860465 C30.2486911,40.1860465 32.4578264,40.1860465 34.6614935,40.1860465 C35.3450131,40.1860465 36.039469,40.1486472 36.6901796,39.9349369 C38.0900277,39.4808025 39.3477038,38.5511626 40.0366915,37.2582152 C40.4960167,36.4033739 40.7366156,35.4897623 40.7420837,34.5227231 C40.7420837,34.3250411 40.7420837,34.1273591 40.7420837,33.9243343 C40.7420837,31.6857187 40.7420837,29.4524459 40.7420837,27.2138304 C40.7420837,24.4890238 40.7420837,21.7642173 40.7420837,19.0394108 C40.7420837,16.9557352 40.7967653,14.9041162 40.3483764,12.8471544 C39.4187898,8.54623428 36.5589439,4.74219067 32.7640432,2.4287765 C28.8652475,0.0565919972 23.9657791,-0.616595497 19.5475086,0.58018227 C15.2221967,1.75558901 11.427296,4.68876309 9.29471489,8.55157704 C8.15733831,10.6085388 7.50662767,12.8311261 7.30977403,15.1552258 C7.23321983,16.0421236 7.26056062,16.9343642 7.26056062,17.821262 C7.26056062,20.3644147 7.26056062,22.9022247 7.26056062,25.4453775 C7.26056062,25.632374 7.26056062,25.8247133 7.26056062,26.0117098 C7.26056062,27.1283462 8.26670144,28.2022406 9.44782327,28.148813 C10.6344133,28.0953854 11.6350859,27.2084876 11.6350859,26.0117098 C11.6350859,24.7561617 11.6350859,23.4952709 11.6350859,22.2397228 C11.6350859,20.4712699 11.6350859,18.702817 11.6350859,16.9343642 C11.6350859,16.1169222 11.6514904,15.3101658 11.7608535,14.4980666 C11.7335127,14.6850631 11.706172,14.8774024 11.6842993,15.0643989 C11.8538122,13.8195363 12.1928379,12.6067303 12.684972,11.4473518 C12.613886,11.6183201 12.5373318,11.7892883 12.4662457,11.9602566 C12.9583798,10.8275919 13.592686,9.76438308 14.3582279,8.78665839 C14.2433966,8.93091285 14.1285654,9.07516732 14.0137341,9.21942178 C14.7956805,8.23635433 15.6979263,7.34945652 16.7040671,6.5907849 C16.5564269,6.70298281 16.4087867,6.81518073 16.2611464,6.92737864 C17.2618191,6.17939254 18.3499823,5.55963262 19.5092315,5.07878441 C19.3342505,5.14824027 19.1592695,5.22303888 18.9842885,5.29249473 C20.1708784,4.80630376 21.41215,4.48039553 22.6862305,4.31477004 C22.494845,4.34148383 22.2979914,4.36819761 22.1066059,4.38956865 C23.3697501,4.22928591 24.6438306,4.22928591 25.9069748,4.38956865 C25.7155893,4.36285486 25.5187356,4.33614107 25.3273502,4.31477004 C26.6014306,4.48039553 27.8427022,4.81164652 29.0292922,5.29249473 C28.8543112,5.22303888 28.6793302,5.14824027 28.5043492,5.07878441 C29.6635984,5.55963262 30.7517615,6.17939254 31.7524342,6.92737864 C31.604794,6.81518073 31.4571537,6.70298281 31.3095135,6.5907849 C32.3156543,7.35479928 33.2233683,8.23635433 33.9998466,9.21942178 C33.8850153,9.07516732 33.770184,8.93091285 33.6553527,8.78665839 C34.4208946,9.76438308 35.0552008,10.8275919 35.5473349,11.9602566 C35.4762489,11.7892883 35.3996947,11.6183201 35.3286086,11.4473518 C35.8262109,12.6067303 36.1597685,13.8195363 36.3292813,15.0643989 C36.3019405,14.8774024 36.2745997,14.6850631 36.2527271,14.4980666 C36.389431,15.5238761 36.3784947,16.5496856 36.3784947,17.5808379 C36.3784947,19.012697 36.3784947,20.4445561 36.3784947,21.8710725 C36.3784947,23.7250095 36.3784947,25.5736037 36.3784947,27.4275407 C36.3784947,29.0517391 36.3784947,30.6812802 36.3784947,32.3054786 C36.3784947,33.0588075 36.3839629,33.8121363 36.3784947,34.5654652 C36.3784947,34.7204052 36.3675584,34.8700024 36.3511539,35.0195996 C36.3784947,34.8326031 36.4058355,34.6402638 36.4277081,34.4532673 C36.3839629,34.7631473 36.3019405,35.0623417 36.1761729,35.3561934 C36.247259,35.1852251 36.3238132,35.0142569 36.3948992,34.8432886 C36.2691316,35.1264548 36.110555,35.3882499 35.9191696,35.6340168 C36.0340009,35.4897623 36.1488321,35.3455079 36.2636634,35.2012534 C36.0832143,35.4203065 35.8808925,35.6179885 35.656698,35.7942995 C35.8043383,35.6821016 35.9519785,35.5699037 36.0996187,35.4577058 C35.8480835,35.6447023 35.5801439,35.7996423 35.2903315,35.9225257 C35.4653126,35.8530699 35.6402936,35.7782713 35.8152746,35.7088154 C35.5199941,35.8263561 35.2083092,35.9118402 34.8911561,35.9545823 C35.0825416,35.9278685 35.2793952,35.9011547 35.4707807,35.8797837 C34.6122801,35.9812961 33.7100343,35.9064974 32.8460655,35.9064974 C31.5555806,35.9064974 30.2650956,35.9064974 28.9746106,35.9064974 C28.6683939,35.9064974 28.3621771,35.9064974 28.0559603,35.9064974 C26.9131156,35.9064974 25.8140161,36.8895649 25.8686977,38.0436006 C25.9124429,39.2083218 26.8201569,40.1860465 28.045024,40.1860465 L28.045024,40.1860465 Z" id="Path"></path>
                </g>
            </g>
        </g>
    </g>
</svg>