<?xml version="1.0" encoding="UTF-8"?>
<svg width="10px" height="8px" viewBox="0 0 10 8" version="1.1" xmlns="http://www.w3.org/2000/svg" xmlns:xlink="http://www.w3.org/1999/xlink">
    <!-- Generator: Sketch 59.1 (86144) - https://sketch.com -->
    <title>twitter copy</title>
    <desc>Created with Sketch.</desc>
    <g id="Nuevos-mails" stroke="none" stroke-width="1" fill="none" fill-rule="evenodd">
        <g id="7-Pago-no-exitoso-Copy" transform="translate(-266.000000, -784.000000)" fill="#000000">
            <path d="M269.145024,792 C272.919215,792 274.982867,788.921866 274.982867,786.253405 C274.982867,786.166151 274.981479,786.078978 274.976745,785.992608 C275.377933,785.707789 275.725821,785.351063 276,784.946772 C275.632604,785.107219 275.23664,785.215683 274.822228,785.264693 C275.245864,785.014422 275.570406,784.618809 275.724515,784.147592 C275.32855,784.37842 274.888671,784.547383 274.421529,784.638252 C274.046298,784.245209 273.514591,784 272.923786,784 C271.790664,784 270.872624,784.904592 270.872624,786.018881 C270.872624,786.177399 270.890663,786.330936 270.925272,786.480135 C269.220282,786.394649 267.707275,785.591451 266.695938,784.369742 C266.520198,784.667818 266.418167,785.014422 266.418167,785.384164 C266.418167,786.084763 266.77993,786.703089 267.331554,787.065601 C266.995094,787.055156 266.678062,786.964367 266.402005,786.812678 C266.401515,786.821757 266.401515,786.829792 266.401515,786.838469 C266.401515,787.817057 267.109125,788.633511 268.046918,788.818302 C267.87575,788.864259 267.693889,788.889648 267.506967,788.889648 C267.37457,788.889648 267.246174,788.87615 267.121124,788.852368 C267.382815,789.655727 268.140216,790.239425 269.037523,790.255815 C268.335464,790.797815 267.450645,791.120395 266.489181,791.120395 C266.323971,791.120395 266.161047,791.110915 266,791.092114 C266.907837,791.665609 267.986107,792 269.145024,792" id="twitter-copy"></path>
        </g>
    </g>
</svg>