<?xml version="1.0" encoding="UTF-8"?>
<svg width="10px" height="8px" viewBox="0 0 10 8" version="1.1" xmlns="http://www.w3.org/2000/svg" xmlns:xlink="http://www.w3.org/1999/xlink">
    <!-- Generator: Sketch 59.1 (86144) - https://sketch.com -->
    <title>twitter</title>
    <desc>Created with Sketch.</desc>
    <g id="Nuevos-mails" stroke="none" stroke-width="1" fill="none" fill-rule="evenodd">
        <g id="30-Vulnerabilidad-de-la-cuenta" transform="translate(-266.000000, -517.000000)" fill="#000000">
            <g id="Group-9" transform="translate(0.000000, 468.000000)">
                <g id="Group-5" transform="translate(41.000000, 42.000000)">
                    <path d="M228.145024,15 C231.919215,15 233.982867,11.9218656 233.982867,9.25340457 C233.982867,9.16615113 233.981479,9.07897803 233.976745,8.99260836 C234.377933,8.70778934 234.725821,8.35106255 235,7.94677218 C234.632604,8.1072189 234.23664,8.21568312 233.822228,8.26469289 C234.245864,8.01442172 234.570406,7.6188085 234.724515,7.14759169 C234.32855,7.37841964 233.888671,7.5473828 233.421529,7.63825172 C233.046298,7.2452095 232.514591,7 231.923786,7 C230.790664,7 229.872624,7.90459165 229.872624,9.01888081 C229.872624,9.17739927 229.890663,9.33093641 229.925272,9.48013498 C228.220282,9.3946491 226.707275,8.59145141 225.695938,7.3697425 C225.520198,7.66781826 225.418167,8.01442172 225.418167,8.38416422 C225.418167,9.08476278 225.77993,9.70308922 226.331554,10.0656008 C225.995094,10.0551561 225.678062,9.96436749 225.402005,9.81267826 C225.401515,9.82175712 225.401515,9.82979151 225.401515,9.83846865 C225.401515,10.817057 226.109125,11.6335114 227.046918,11.8183023 C226.87575,11.864259 226.693889,11.8896477 226.506967,11.8896477 C226.37457,11.8896477 226.246174,11.8761499 226.121124,11.8523681 C226.382815,12.6557265 227.140216,13.2394247 228.037523,13.2558149 C227.335464,13.7978146 226.450645,14.1203953 225.489181,14.1203953 C225.323971,14.1203953 225.161047,14.1109147 225,14.0921142 C225.907837,14.6656088 226.986107,15 228.145024,15" id="twitter"></path>
                </g>
            </g>
        </g>
    </g>
</svg>